<svg width="554" height="149" viewBox="0 0 554 149" fill="none" xmlns="http://www.w3.org/2000/svg">
<path opacity="0.994" fill-rule="evenodd" clip-rule="evenodd" d="M71.2813 1.80925C90.7972 1.09786 107.923 7.01055 122.658 19.5473C136.194 31.5331 144.331 46.5514 147.069 64.6021C148.826 78.3655 146.946 91.5626 141.427 104.194C133.724 120.835 121.507 133.074 104.775 140.911C89.6633 147.525 74.0275 148.979 57.8695 145.275C42.3911 141.346 29.5115 133.376 19.2307 121.364C6.41546 105.766 0.833121 87.7439 2.48366 67.2983C4.33108 50.5331 11.0251 36.0824 22.5659 23.9464C34.9734 11.3477 50.0528 4.05147 67.8041 2.05759C68.9751 1.98677 70.1342 1.90399 71.2813 1.80925ZM83.8415 15.9997C89.0402 26.3242 94.2204 36.6596 99.3822 47.0059C97.5784 53.3688 95.8398 59.7545 94.1665 66.1631C93.0907 67.5469 91.8021 68.6702 90.2991 69.5333C89.8378 69.6397 89.3766 69.7462 88.9153 69.8526C87.2882 69.5003 85.9874 68.6489 85.0124 67.2983C84.5923 66.5225 84.3319 65.6948 84.2318 64.815C84.1751 63.796 84.1992 62.779 84.3028 61.764C84.6044 60.0809 84.9592 58.4017 85.3672 56.7264C86.1428 53.83 86.9589 50.9446 87.8154 48.0702C85.8313 43.8069 83.7734 39.6089 81.6417 35.4762C81.6957 35.3794 81.6602 35.2966 81.5353 35.2278C80.92 33.9268 80.3048 32.6261 79.6903 31.3254C79.6349 31.2383 79.564 31.1674 79.4774 31.1126C74.2652 33.5707 69.0493 36.0185 63.8303 38.4562C62.1327 43.7437 60.477 48.9942 58.8629 54.2076C57.9815 56.0018 56.7752 57.539 55.2439 58.8195C52.7997 60.3907 50.5407 60.166 48.467 58.1455C48.1595 57.7907 47.852 57.4359 47.5445 57.0812C47.0816 56.4285 46.644 55.7545 46.2317 55.059C46.3038 55.0222 46.3511 54.963 46.3736 54.8816C47.5573 51.1644 48.7519 47.4513 49.9572 43.7421C51.2467 39.9701 52.5003 36.1386 53.7182 32.2478C53.8273 31.9325 53.9574 31.625 54.1085 31.3254C54.0937 31.2839 54.07 31.2484 54.0375 31.219C54.3348 31.0113 54.6423 30.8222 54.96 30.6514C64.6214 25.8144 74.2482 20.9305 83.8415 15.9997ZM65.8172 130.801C59.9262 122.123 54.0482 113.395 48.1832 104.619C48.1661 104.343 48.2015 104.072 48.2896 103.803C49.3535 99.8087 50.4534 95.824 51.5893 91.8478C52.0116 90.4557 52.4729 89.0722 52.9731 87.6971C53.8898 85.8424 55.3563 84.6596 57.3727 84.1495C60.0793 83.5521 62.0189 84.4986 63.1916 86.9876C63.3185 87.3885 63.4723 87.7787 63.6529 88.1583C63.9273 89.0849 64.1519 90.0194 64.327 90.9609C63.6075 94.2517 62.8624 97.5269 62.0917 100.788C61.9156 101.739 61.75 102.684 61.595 103.626C65.2181 108.691 68.8254 113.717 72.4167 118.703C72.511 118.751 72.6061 118.751 72.7005 118.703C78.3739 114.919 83.921 110.982 89.3411 106.89C90.3282 105.575 90.7894 104.085 90.7249 102.42C90.6802 101.423 90.5978 100.43 90.4765 99.4397C90.297 98.5067 90.0727 97.5843 89.8024 96.6726C89.7378 96.364 89.5717 96.1277 89.3056 95.9631C77.1612 87.7205 64.9795 79.5021 52.7602 71.3071C52.4073 68.5663 52.0525 65.7992 51.6958 63.0057C54.6017 62.7369 57.5111 62.5004 60.4241 62.2962C71.2188 69.2817 81.9582 76.3532 92.6408 83.5109C94.3553 84.7583 96.0818 85.9879 97.8211 87.2005C100.528 89.3461 102.267 92.1253 103.037 95.5374C103.651 98.8139 103.604 102.078 102.895 105.329C102.669 106.693 102.231 107.982 101.582 109.196C100.609 110.777 99.5092 112.255 98.2823 113.63C95.9909 115.968 93.5186 118.109 90.8668 120.051C83.8444 124.995 76.4168 129.253 68.5847 132.823C68.0886 133.064 67.6037 133.053 67.13 132.787C66.7086 132.109 66.271 131.447 65.8172 130.801Z" fill="#53BBBB"/>
<path opacity="0.993" fill-rule="evenodd" clip-rule="evenodd" d="M184.679 31.9633C190.361 31.9383 195.802 33.0617 201.001 35.3335C201.621 35.6257 202.224 35.945 202.81 36.2914C202.829 36.5148 202.782 36.7277 202.668 36.93C201.304 40.2498 199.92 43.561 198.517 46.8633C194.715 44.7421 190.646 43.4768 186.311 43.0673C184.248 42.8981 182.213 43.0637 180.209 43.564C178.999 43.8763 178.017 44.5267 177.264 45.5152C176.241 47.4181 176.631 48.9436 178.435 50.0916C179.603 50.723 180.833 51.1961 182.125 51.5107C184.506 52.0882 186.895 52.6322 189.292 53.1426C192.307 53.7691 195.193 54.7624 197.949 56.1226C203.328 59.0858 205.611 63.6385 204.797 69.7809C204.16 73.8827 202.162 77.1351 198.801 79.5369C196.325 81.2454 193.605 82.4048 190.64 83.0135C183.709 84.2914 176.85 83.96 170.061 82.0202C167.15 81.2326 164.442 80.0144 161.936 78.3662C161.889 78.2718 161.889 78.1767 161.936 78.0823C163.443 74.6674 164.968 71.2617 166.513 67.8652C172.638 71.7378 179.308 73.2867 186.524 72.5126C187.907 72.3366 189.124 71.8045 190.179 70.9162C191.093 69.8038 191.235 68.5976 190.605 67.2976C190.054 66.5113 189.333 65.9318 188.44 65.5592C187.454 65.1201 186.436 64.7653 185.389 64.495C182.409 63.7854 179.428 63.0759 176.448 62.3664C173.369 61.6188 170.507 60.3889 167.861 58.6769C164.359 56.0706 162.656 52.5704 162.752 48.1759C162.788 43.1834 164.799 39.21 168.784 36.2559C171.369 34.4912 174.208 33.3086 177.299 32.7083C179.748 32.2388 182.208 31.9905 184.679 31.9633Z" fill="#53BBBB"/>
<path opacity="0.994" fill-rule="evenodd" clip-rule="evenodd" d="M406.717 31.965C412.447 31.9485 417.769 33.403 422.684 36.3286C430.383 41.4097 434.285 48.5995 434.393 57.8981C434.285 67.1967 430.383 74.3867 422.684 79.4676C417.78 82.3873 412.47 83.8418 406.753 83.8312C401.036 83.8418 395.725 82.3873 390.822 79.4676C383.123 74.3867 379.22 67.1967 379.113 57.8981C379.22 48.5995 383.123 41.4097 390.822 36.3286C395.721 33.4128 401.02 31.9583 406.717 31.965ZM405.44 43.7431C409.668 43.437 413.298 44.7378 416.333 47.6455C418.605 50.1528 419.859 53.1091 420.094 56.5145C420.427 60.4336 419.457 63.9813 417.184 67.1574C414.12 70.7664 410.205 72.3866 405.44 72.0176C399.59 71.2641 395.77 68.0832 393.98 62.4745C392.807 58.118 393.28 53.9555 395.399 49.9869C397.742 46.3135 401.089 44.2322 405.44 43.7431Z" fill="#53BBBB"/>
<path opacity="0.994" fill-rule="evenodd" clip-rule="evenodd" d="M524.089 31.965C529.818 31.9485 535.14 33.403 540.055 36.3286C547.754 41.4097 551.657 48.5995 551.764 57.8981C551.657 67.1967 547.754 74.3867 540.055 79.4676C535.152 82.3873 529.841 83.8418 524.124 83.8312C518.407 83.8418 513.097 82.3873 508.193 79.4676C500.494 74.3867 496.592 67.1967 496.484 57.8981C496.592 48.5995 500.494 41.4097 508.193 36.3286C513.092 33.4128 518.391 31.9583 524.089 31.965ZM522.811 43.7431C527.039 43.437 530.67 44.7378 533.704 47.6455C535.976 50.1528 537.23 53.1091 537.465 56.5145C537.798 60.4336 536.828 63.9813 534.555 67.1574C531.491 70.7664 527.576 72.3866 522.811 72.0176C516.961 71.2641 513.141 68.0832 511.351 62.4745C510.178 58.118 510.651 53.9555 512.77 49.9869C515.113 46.3135 518.46 44.2322 522.811 43.7431Z" fill="#53BBBB"/>
<path opacity="0.997" fill-rule="evenodd" clip-rule="evenodd" d="M211.359 33.0293C216.066 33.0293 220.774 33.0293 225.481 33.0293C225.481 39.2495 225.481 45.4696 225.481 51.6898C231.844 51.6898 238.206 51.6898 244.57 51.6898C244.57 45.4696 244.57 39.2495 244.57 33.0293C249.276 33.0293 253.984 33.0293 258.691 33.0293C258.691 49.6085 258.691 66.1877 258.691 82.7669C253.984 82.7669 249.276 82.7669 244.57 82.7669C244.57 76.3102 244.57 69.8536 244.57 63.3969C238.206 63.3969 231.844 63.3969 225.481 63.3969C225.481 69.8536 225.481 76.3102 225.481 82.7669C220.774 82.7669 216.066 82.7669 211.359 82.7669C211.359 66.1877 211.359 49.6085 211.359 33.0293Z" fill="#53BBBB"/>
<path opacity="0.995" fill-rule="evenodd" clip-rule="evenodd" d="M284.45 33.0283C289.126 33.0048 293.799 33.0285 298.465 33.0993C305.786 49.6312 313.107 66.1631 320.428 82.695C315.531 82.778 310.635 82.7893 305.739 82.7304C304.445 79.5475 303.144 76.3667 301.836 73.1874C294.858 73.1043 287.88 73.093 280.902 73.1519C279.608 76.3348 278.308 79.5156 276.999 82.695C272.198 82.7659 267.396 82.7893 262.594 82.7659C269.86 66.1792 277.144 49.5999 284.45 33.0283ZM291.333 46.935C293.451 52.1491 295.556 57.3759 297.649 62.6155C293.462 62.6864 289.275 62.71 285.089 62.6864C287.156 57.4312 289.238 52.1807 291.333 46.935Z" fill="#53BBBB"/>
<path opacity="0.997" fill-rule="evenodd" clip-rule="evenodd" d="M324.402 33.0284C328.305 33.0048 332.208 33.0284 336.111 33.0993C343.375 41.8398 350.624 50.5906 357.861 59.3517C357.896 50.5773 357.908 41.8029 357.896 33.0284C362.509 33.0284 367.121 33.0284 371.734 33.0284C371.734 49.6076 371.734 66.1868 371.734 82.766C367.831 82.7894 363.928 82.766 360.025 82.6951C352.762 73.9544 345.512 65.2038 338.275 56.4427C338.24 65.2171 338.228 73.9913 338.24 82.766C333.627 82.766 329.015 82.766 324.402 82.766C324.402 66.1868 324.402 49.6076 324.402 33.0284Z" fill="#53BBBB"/>
<path opacity="0.997" fill-rule="evenodd" clip-rule="evenodd" d="M441.773 33.0284C445.676 33.0048 449.579 33.0284 453.482 33.0993C460.746 41.8398 467.995 50.5906 475.232 59.3517C475.267 50.5773 475.28 41.8029 475.267 33.0284C479.88 33.0284 484.493 33.0284 489.105 33.0284C489.105 49.6076 489.105 66.1868 489.105 82.766C485.202 82.7894 481.299 82.766 477.396 82.6951C470.133 73.9544 462.883 65.2038 455.647 56.4427C455.611 65.2171 455.599 73.9913 455.611 82.766C450.998 82.766 446.386 82.766 441.773 82.766C441.773 66.1868 441.773 49.6076 441.773 33.0284Z" fill="#53BBBB"/>
<path opacity="0.973" fill-rule="evenodd" clip-rule="evenodd" d="M330.434 99.7942C332.913 99.5352 335.184 100.091 337.246 101.462C339.474 103.173 340.586 105.443 340.582 108.273C340.494 112.048 338.72 114.674 335.259 116.149C332.847 116.951 330.435 116.951 328.021 116.149C324.588 114.651 322.813 112.026 322.699 108.273C322.837 104.212 324.824 101.516 328.66 100.184C329.255 100.023 329.846 99.8928 330.434 99.7942ZM330.718 102.561C333.065 102.298 334.969 103.079 336.43 104.903C337.742 107.05 337.789 109.226 336.572 111.43C335 113.54 332.906 114.356 330.292 113.878C328.009 113.298 326.578 111.867 325.999 109.586C325.518 107.037 326.31 104.991 328.376 103.448C329.113 103.018 329.893 102.722 330.718 102.561Z" fill="#FE0000"/>
<path opacity="0.973" fill-rule="evenodd" clip-rule="evenodd" d="M433.897 99.7942C436.376 99.5352 438.646 100.091 440.709 101.462C442.937 103.173 444.049 105.443 444.045 108.273C443.957 112.048 442.182 114.674 438.722 116.149C436.31 116.951 433.898 116.951 431.484 116.149C428.05 114.651 426.276 112.026 426.162 108.273C426.3 104.212 428.287 101.516 432.123 100.184C432.718 100.023 433.309 99.8928 433.897 99.7942ZM434.181 102.561C436.528 102.298 438.432 103.079 439.893 104.903C441.205 107.05 441.252 109.226 440.035 111.43C438.463 113.54 436.369 114.356 433.755 113.878C431.471 113.298 430.041 111.867 429.462 109.586C428.981 107.037 429.773 104.991 431.839 103.448C432.576 103.018 433.356 102.722 434.181 102.561Z" fill="#FE0000"/>
<path opacity="0.969" fill-rule="evenodd" clip-rule="evenodd" d="M541.972 99.794C544.011 99.6081 545.974 99.904 547.862 100.681C548.231 100.829 548.562 101.031 548.855 101.284C548.53 102.099 548.187 102.902 547.826 103.696C545.713 102.416 543.478 102.096 541.12 102.739C539.835 103.286 539.468 104.197 540.02 105.47C540.585 106.03 541.259 106.397 542.043 106.57C543.657 106.92 545.242 107.37 546.797 107.918C549.204 109.054 550.02 110.911 549.245 113.488C548.651 114.815 547.669 115.726 546.301 116.22C544.73 116.725 543.122 116.891 541.475 116.716C539.668 116.571 538.012 116.004 536.508 115.013C536.393 114.934 536.322 114.827 536.295 114.694C536.631 113.904 536.986 113.123 537.359 112.353C539.636 113.983 542.143 114.492 544.881 113.878C546.225 113.427 546.662 112.54 546.194 111.217C545.762 110.724 545.23 110.38 544.597 110.189C543.179 109.81 541.76 109.431 540.34 109.053C539.139 108.721 538.134 108.093 537.324 107.173C536.682 106.15 536.469 105.038 536.685 103.838C537.078 102.192 538.06 101.045 539.63 100.397C540.399 100.116 541.18 99.9154 541.972 99.794Z" fill="#FE0000"/>
<path opacity="0.975" fill-rule="evenodd" clip-rule="evenodd" d="M371.096 99.9365C373.959 99.9095 376.821 99.945 379.682 100.043C382.594 100.286 384.83 101.622 386.388 104.052C387.394 106.006 387.677 108.064 387.24 110.225C386.47 113.288 384.566 115.264 381.527 116.149C380.924 116.329 380.309 116.446 379.682 116.504C376.821 116.602 373.959 116.637 371.096 116.61C371.096 111.053 371.096 105.494 371.096 99.9365ZM374.218 102.633C375.756 102.621 377.294 102.633 378.831 102.668C382.235 102.998 384.057 104.866 384.295 108.273C384.057 111.681 382.235 113.549 378.831 113.879C377.294 113.914 375.756 113.926 374.218 113.914C374.218 110.154 374.218 106.393 374.218 102.633Z" fill="#FE0000"/>
<path opacity="0.978" fill-rule="evenodd" clip-rule="evenodd" d="M451.354 99.9365C454.075 99.9095 456.795 99.945 459.514 100.043C463.711 100.598 465.591 102.975 465.156 107.174C464.745 109.097 463.622 110.41 461.785 111.111C463.047 112.891 464.301 114.677 465.546 116.468C464.411 116.551 463.276 116.563 462.14 116.504C461.028 114.919 459.916 113.334 458.805 111.75C457.362 111.715 455.919 111.703 454.476 111.715C454.476 113.323 454.476 114.931 454.476 116.539C453.435 116.539 452.395 116.539 451.354 116.539C451.354 111.005 451.354 105.471 451.354 99.9365ZM454.476 102.633C455.848 102.621 457.22 102.633 458.592 102.668C461.257 102.871 462.38 104.279 461.962 106.89C461.68 107.787 461.1 108.414 460.224 108.77C459.696 108.961 459.152 109.079 458.592 109.125C457.22 109.16 455.848 109.172 454.476 109.16C454.476 106.984 454.476 104.809 454.476 102.633Z" fill="#FE0000"/>
<path opacity="0.975" fill-rule="evenodd" clip-rule="evenodd" d="M472.713 99.9365C475.576 99.9095 478.438 99.945 481.299 100.043C484.212 100.286 486.447 101.622 488.005 104.052C489.011 106.006 489.295 108.064 488.857 110.225C488.087 113.288 486.183 115.264 483.144 116.149C482.541 116.329 481.926 116.446 481.299 116.504C478.438 116.602 475.576 116.637 472.713 116.61C472.713 111.053 472.713 105.494 472.713 99.9365ZM475.835 102.633C477.373 102.621 478.911 102.633 480.448 102.668C483.852 102.998 485.674 104.866 485.912 108.273C485.674 111.681 483.852 113.549 480.448 113.879C478.911 113.914 477.373 113.926 475.835 113.914C475.835 110.154 475.835 106.393 475.835 102.633Z" fill="#FE0000"/>
<path opacity="0.978" fill-rule="evenodd" clip-rule="evenodd" d="M516.283 99.9365C519.005 99.9095 521.725 99.945 524.444 100.043C528.641 100.598 530.521 102.975 530.085 107.174C529.675 109.097 528.552 110.41 526.715 111.111C527.977 112.891 529.231 114.677 530.476 116.468C529.341 116.551 528.206 116.563 527.069 116.504C525.957 114.919 524.846 113.334 523.734 111.75C522.292 111.715 520.849 111.703 519.406 111.715C519.406 113.323 519.406 114.931 519.406 116.539C518.365 116.539 517.324 116.539 516.283 116.539C516.283 111.005 516.283 105.471 516.283 99.9365ZM519.406 102.633C520.778 102.621 522.15 102.633 523.521 102.668C526.187 102.871 527.31 104.279 526.892 106.89C526.61 107.787 526.03 108.414 525.153 108.77C524.625 108.961 524.081 109.079 523.521 109.125C522.15 109.16 520.778 109.172 519.406 109.16C519.406 106.984 519.406 104.809 519.406 102.633Z" fill="#FE0000"/>
<path opacity="0.984" fill-rule="evenodd" clip-rule="evenodd" d="M164.1 100.006C167.151 99.9944 170.202 100.006 173.254 100.042C174.575 100.143 175.757 100.593 176.802 101.39C178.008 102.692 178.327 104.194 177.76 105.896C177.379 106.773 176.776 107.447 175.95 107.918C177.879 108.603 178.848 109.975 178.86 112.033C178.784 114.166 177.72 115.538 175.666 116.148C175.06 116.312 174.445 116.431 173.821 116.503C170.581 116.538 167.34 116.55 164.1 116.538C164.1 111.028 164.1 105.517 164.1 100.006ZM167.222 102.419C168.665 102.407 170.108 102.419 171.551 102.454C172.371 102.439 173.152 102.604 173.892 102.951C174.706 103.521 175.001 104.291 174.779 105.257C174.482 106.121 173.879 106.63 172.97 106.782C172.524 106.855 172.074 106.902 171.622 106.924C170.156 106.96 168.689 106.972 167.222 106.96C167.222 105.446 167.222 103.932 167.222 102.419ZM167.222 109.372C169.067 109.36 170.912 109.372 172.757 109.408C173.724 109.407 174.564 109.726 175.276 110.366C175.839 111.228 175.862 112.104 175.347 112.991C174.978 113.431 174.517 113.727 173.963 113.878C173.38 114.011 172.789 114.082 172.189 114.091C170.534 114.126 168.878 114.138 167.222 114.126C167.222 112.542 167.222 110.957 167.222 109.372Z" fill="#FE0000"/>
<path opacity="0.977" fill-rule="evenodd" clip-rule="evenodd" d="M191.206 100.007C192.271 99.9834 193.336 100.007 194.4 100.078C196.899 105.55 199.36 111.037 201.78 116.539C200.691 116.551 199.603 116.539 198.515 116.503C197.951 115.272 197.407 114.03 196.883 112.778C194.139 112.684 191.396 112.684 188.652 112.778C188.11 114.026 187.59 115.279 187.09 116.539C186.003 116.539 184.914 116.539 183.826 116.539C186.267 111.021 188.726 105.51 191.206 100.007ZM192.696 103.271C192.785 103.276 192.844 103.323 192.874 103.413C193.836 105.692 194.817 107.962 195.819 110.224C193.785 110.307 191.75 110.318 189.716 110.259C190.739 107.941 191.733 105.612 192.696 103.271Z" fill="#FE0000"/>
<path opacity="0.991" fill-rule="evenodd" clip-rule="evenodd" d="M207.953 100.006C208.829 99.9944 209.704 100.006 210.579 100.042C213.595 103.719 216.61 107.398 219.626 111.075C219.662 107.386 219.674 103.696 219.662 100.006C220.679 100.006 221.696 100.006 222.713 100.006C222.713 105.517 222.713 111.028 222.713 116.538C221.838 116.55 220.963 116.538 220.088 116.503C217.072 112.825 214.056 109.147 211.04 105.47C211.004 109.159 210.992 112.849 211.004 116.538C209.988 116.538 208.97 116.538 207.953 116.538C207.953 111.028 207.953 105.517 207.953 100.006Z" fill="#FE0000"/>
<path opacity="0.977" fill-rule="evenodd" clip-rule="evenodd" d="M231.23 100.008C232.271 100.008 233.312 100.008 234.353 100.008C234.341 102.775 234.353 105.542 234.388 108.309C237.049 105.554 239.71 102.799 242.371 100.043C243.578 99.9959 244.784 99.9959 245.991 100.043C243.672 102.503 241.355 104.963 239.036 107.423C241.497 110.45 243.956 113.477 246.416 116.504C245.162 116.552 243.909 116.552 242.655 116.504C240.777 114.213 238.861 111.954 236.907 109.728C236.082 110.589 235.243 111.441 234.388 112.283C234.353 113.702 234.341 115.121 234.353 116.54C233.312 116.54 232.271 116.54 231.23 116.54C231.23 111.029 231.23 105.519 231.23 100.008Z" fill="#FE0000"/>
<path opacity="0.984" fill-rule="evenodd" clip-rule="evenodd" d="M263.092 100.006C266.143 99.9944 269.195 100.006 272.246 100.042C273.567 100.143 274.749 100.593 275.794 101.39C277 102.692 277.32 104.194 276.752 105.896C276.371 106.773 275.768 107.447 274.942 107.918C276.871 108.603 277.841 109.975 277.852 112.033C277.777 114.166 276.712 115.538 274.659 116.148C274.053 116.312 273.437 116.431 272.814 116.503C269.573 116.538 266.333 116.55 263.092 116.538C263.092 111.028 263.092 105.517 263.092 100.006ZM266.214 102.419C267.657 102.407 269.1 102.419 270.543 102.454C271.363 102.439 272.144 102.604 272.885 102.951C273.698 103.521 273.994 104.291 273.772 105.257C273.474 106.121 272.871 106.63 271.962 106.782C271.516 106.855 271.066 106.902 270.614 106.924C269.148 106.96 267.681 106.972 266.214 106.96C266.214 105.446 266.214 103.932 266.214 102.419ZM266.214 109.372C268.059 109.36 269.904 109.372 271.749 109.408C272.716 109.407 273.557 109.726 274.268 110.366C274.831 111.228 274.854 112.104 274.339 112.991C273.97 113.431 273.509 113.727 272.956 113.878C272.372 114.011 271.781 114.082 271.181 114.091C269.526 114.126 267.87 114.138 266.214 114.126C266.214 112.542 266.214 110.957 266.214 109.372Z" fill="#FE0000"/>
<path opacity="0.986" fill-rule="evenodd" clip-rule="evenodd" d="M285.16 100.008C289.205 100.008 293.25 100.008 297.295 100.008C297.295 100.883 297.295 101.758 297.295 102.633C294.291 102.633 291.286 102.633 288.282 102.633C288.282 104.052 288.282 105.471 288.282 106.89C290.931 106.89 293.581 106.89 296.23 106.89C296.23 107.742 296.23 108.593 296.23 109.444C293.581 109.444 290.931 109.444 288.282 109.444C288.282 110.934 288.282 112.424 288.282 113.914C291.381 113.914 294.48 113.914 297.578 113.914C297.578 114.789 297.578 115.665 297.578 116.54C293.439 116.54 289.299 116.54 285.16 116.54C285.16 111.029 285.16 105.519 285.16 100.008Z" fill="#FE0000"/>
<path opacity="0.973" fill-rule="evenodd" clip-rule="evenodd" d="M302.475 100.007C303.611 99.9834 304.746 100.007 305.881 100.078C307.454 102.703 309.027 105.328 310.6 107.953C312.229 105.323 313.849 102.685 315.461 100.042C316.502 99.9948 317.542 99.9948 318.583 100.042C316.409 103.596 314.245 107.155 312.09 110.721C312.054 112.66 312.042 114.599 312.054 116.539C311.013 116.539 309.973 116.539 308.932 116.539C308.944 114.599 308.932 112.66 308.897 110.721C306.738 107.156 304.597 103.585 302.475 100.007Z" fill="#FE0000"/>
<path opacity="0.991" fill-rule="evenodd" clip-rule="evenodd" d="M347.891 100.006C348.766 99.9944 349.641 100.006 350.516 100.042C353.532 103.719 356.548 107.398 359.564 111.075C359.599 107.386 359.611 103.696 359.599 100.006C360.616 100.006 361.634 100.006 362.651 100.006C362.651 105.517 362.651 111.028 362.651 116.538C361.775 116.55 360.9 116.538 360.025 116.503C357.009 112.825 353.993 109.147 350.977 105.47C350.942 109.159 350.93 112.849 350.942 116.538C349.925 116.538 348.908 116.538 347.891 116.538C347.891 111.028 347.891 105.517 347.891 100.006Z" fill="#FE0000"/>
<path opacity="0.984" fill-rule="evenodd" clip-rule="evenodd" d="M405.299 100.006C408.35 99.9944 411.402 100.006 414.453 100.042C415.774 100.143 416.956 100.593 418.001 101.39C419.207 102.692 419.527 104.194 418.959 105.896C418.578 106.773 417.975 107.447 417.149 107.918C419.078 108.603 420.048 109.975 420.059 112.033C419.984 114.166 418.919 115.538 416.866 116.148C416.26 116.312 415.644 116.431 415.021 116.503C411.78 116.538 408.54 116.55 405.299 116.538C405.299 111.028 405.299 105.517 405.299 100.006ZM408.421 102.419C409.865 102.407 411.307 102.419 412.75 102.454C413.57 102.439 414.351 102.604 415.092 102.951C415.905 103.521 416.201 104.291 415.979 105.257C415.681 106.121 415.078 106.63 414.169 106.782C413.723 106.855 413.273 106.902 412.821 106.924C411.355 106.96 409.888 106.972 408.421 106.96C408.421 105.446 408.421 103.932 408.421 102.419ZM408.421 109.372C410.266 109.36 412.111 109.372 413.956 109.408C414.923 109.407 415.764 109.726 416.475 110.366C417.038 111.228 417.061 112.104 416.546 112.991C416.177 113.431 415.716 113.727 415.163 113.878C414.579 114.011 413.988 114.082 413.388 114.091C411.733 114.126 410.077 114.138 408.421 114.126C408.421 112.542 408.421 110.957 408.421 109.372Z" fill="#FE0000"/>
<path opacity="0.986" fill-rule="evenodd" clip-rule="evenodd" d="M496.344 100.008C500.389 100.008 504.433 100.008 508.478 100.008C508.478 100.883 508.478 101.758 508.478 102.633C505.474 102.633 502.47 102.633 499.466 102.633C499.466 104.052 499.466 105.471 499.466 106.89C502.115 106.89 504.765 106.89 507.414 106.89C507.414 107.742 507.414 108.593 507.414 109.444C504.765 109.444 502.115 109.444 499.466 109.444C499.466 110.934 499.466 112.424 499.466 113.914C502.565 113.914 505.663 113.914 508.762 113.914C508.762 114.789 508.762 115.665 508.762 116.54C504.623 116.54 500.483 116.54 496.344 116.54C496.344 111.029 496.344 105.519 496.344 100.008Z" fill="#FE0000"/>
</svg>
